<svg xmlns="http://www.w3.org/2000/svg" width="250" height="114" viewBox="0 0 250 114">
  <path fill="#CFCFCF" fill-rule="evenodd" d="M116.65618,0.00655445441 C117.829427,-0.0131089088 119.756436,0.0262178176 121.473704,0.720989985 C123.190971,1.41576215 124.691941,2.75942531 127.136752,4.92239526 C129.588118,7.07881076 132.976771,10.0479786 135.231503,12.5714436 C137.486236,15.0949085 138.600493,17.1726705 139.354255,19.0603534 C140.108017,20.9545907 140.488176,22.64564 140.278433,24.2842536 C140.068691,25.9228672 139.255938,27.5024907 137.892612,29.2197577 C136.870117,30.4978764 135.539563,31.848094 133.750197,33.1786482 C136.070473,33.6636778 138.469404,34.1749253 140.914215,34.7123905 C150.857323,36.868806 161.645955,39.3332809 171.110587,41.5683499 C180.568664,43.8034188 188.702742,45.8090819 194.739395,46.5366263 C200.782602,47.2707252 204.728383,46.7267055 207.881076,45.8680719 C209.264066,45.4879136 210.489749,45.0487651 211.525353,44.7538147 C212.888679,44.0787059 214.31755,43.3708248 215.752976,42.6498348 C220.26244,40.3754391 224.850558,37.9109643 229.22238,35.9642913 C233.600755,34.0176184 237.762834,32.5887473 240.673011,31.9726286 C243.576635,31.3565099 245.234912,31.5465891 246.414713,32.1299355 C247.587961,32.7067275 248.282733,33.6702323 248.204079,35.0532222 C248.125426,36.4427665 247.279901,38.2517959 245.949347,40.8014787 C244.618793,43.344607 242.809764,46.6152797 241.308793,49.6827644 C239.801269,52.7436946 238.608358,55.5948823 238.490378,58.1773373 C238.378952,60.7597924 239.342457,63.0735148 241.013843,65.9443658 C242.691783,68.8152168 245.084159,72.2431965 246.814535,75.1140475 C248.551466,77.9848985 249.632951,80.2986209 249.921347,82.0748781 C250.209743,83.8445808 249.70505,85.0768182 248.223743,85.8895706 C246.742436,86.6957684 244.271407,87.0824813 239.781606,86.1189765 C235.291804,85.1554717 228.783231,82.8417493 223.310262,80.6263437 C218.512401,78.6862252 214.520738,76.8182057 210.352105,74.1439883 C209.598343,74.039117 208.615175,73.7966022 207.382937,73.7179487 C204.734938,73.5540874 200.900582,74.1505427 196.378008,74.6028001 C191.861989,75.0616119 186.657753,75.3696712 182.187615,76.5625819 C179.225001,77.3556709 176.590111,78.5354727 174.01421,79.7742646 C174.086309,79.8070369 174.158408,79.8398091 174.230507,79.8791359 C177.180012,81.2621257 180.529338,81.9962246 183.557496,82.5730166 C186.579099,83.1498086 189.279534,83.5758481 190.898485,84.250957 C192.517435,84.9260658 193.0549,85.8502438 192.556762,87.8755702 C192.052069,89.8943422 190.511772,93.0142625 187.601594,96.180064 C184.691416,99.339311 180.417912,102.537885 177.199675,104.615647 C173.981438,106.699963 171.825022,107.663468 169.858686,107.853547 C167.89235,108.050181 166.116092,107.466834 164.2874,106.25426 C162.458707,105.041686 160.571024,103.19333 158.853757,100.958261 C157.13649,98.7231923 155.596193,96.1014105 153.151382,92.9618269 C152.45661,92.0638666 151.683184,91.1331341 150.916313,90.1892926 C149.002412,91.1724608 147.770175,91.8606785 145.404017,92.5947774 C143.031304,93.3223218 139.524671,94.0957475 135.998374,94.4824603 C132.472078,94.8691731 128.926118,94.8691731 125.091762,94.7708563 C124.003723,94.7446385 122.889466,94.7053117 121.794872,94.6790939 C123.335169,95.8654502 124.973782,96.7634104 126.422317,97.5433905 C128.388653,98.6052121 130.007603,99.4507367 131.049761,100.512558 C132.09192,101.57438 132.550731,102.845944 132.439306,104.654974 C132.321326,106.464003 131.626553,108.817052 130.545068,110.501547 C129.470138,112.179487 128.00194,113.195428 126.44198,113.444497 C124.88202,113.693566 123.223743,113.182319 121.355723,112.08117 C119.487704,110.973468 117.409942,109.282418 115.096219,106.791726 C112.782497,104.307587 110.239369,101.03036 108.312359,97.8907766 C107.925646,97.2549945 107.558597,96.6323213 107.22432,96.0162026 C106.280478,95.9899848 105.23832,95.9244402 104.130617,95.8523413 C101.567825,95.675371 98.6773111,95.4459651 93.512401,94.9805988 C88.347491,94.521787 80.9081852,93.8270148 74.0325625,92.8241833 C67.1503854,91.8213518 60.8318914,90.5104609 52.7174768,87.8886791 C44.6096167,85.2734518 34.7058361,81.3407792 26.9781343,77.9652352 C19.2504326,74.5962456 13.6988097,71.7843847 9.54328562,69.2609197 C5.38120707,66.7374548 2.61522731,64.5023858 1.22568297,62.9948613 C-0.157306906,61.4938912 -0.157306906,60.7204656 0.209742541,59.5668817 C0.570237533,58.4132977 1.29778197,56.8664464 3.20512821,55.057417 C5.10591998,53.2483876 8.19306801,51.1640711 12.7746316,49.1256358 C17.3627497,47.080646 23.4518379,45.074983 27.8433223,43.5740129 C32.2348068,42.0730428 34.935242,41.0702113 38.0748257,40.0477164 C41.2144093,39.0252215 44.7996959,37.9830633 51.2754968,36.4034398 C57.7512978,34.8238163 67.1176131,32.7067275 75.6711761,31.4155 C84.2247391,30.1242725 91.9721042,29.6589062 98.0218657,29.3705102 C99.4769545,29.3049657 100.827172,29.2459756 102.144617,29.2066488 C102.282261,28.9969063 102.419905,28.7871638 102.550994,28.5839757 C103.652142,26.886372 104.57632,25.2674217 105.690577,22.6849667 C106.811389,20.1025117 108.12228,16.5565518 109.334854,13.1678989 C110.547428,9.77269152 111.66824,6.5413455 112.533428,4.39803891 C113.398616,2.26128677 114.014734,1.21912852 114.539091,0.661999895 C115.056893,0.104871271 115.482932,0.0262178176 116.65618,0.00655445441 Z"/>
</svg>
